<svg xmlns="http://www.w3.org/2000/svg" height="2494" width="97" viewBox="0 0 97 2494" class="sc-1g140ul-5 bXlklW" style="transform: translate(-45.5px, 0%);">
    <path d="M80.2,8.2c-.1-1.8-.1,1.5-.1,1.5S79,23,79,22.9L78.4,27c-.3,3.6-1.7,8.9-2.9,9.9-2,1.7-5.8,4.7-7.8,4.5a31.08,31.08,0,0,0-6.1,0c-2.8.2-11-1.4-12.6-3.4-1.8-2.2-2.4-8.8-2.8-10.7C43.6,13.4,43,9.7,43.4,12.5c-3.8,3.7-6.3,7-7.6,11.9-1.7,6.7-1.8,14.4-2,22.6V2494h57V47.2C91.1,37.9,89.8,16.9,80.2,8.2Z" fill="#F2C744"></path>
    <path d="M79.1,9.8A17.61,17.61,0,0,0,78,4.4C77.1,2.3,67.6-.8,59.7.2,54,.8,44.5,3.7,44.2,8.3v7.5l2.1,11.6L49,38l7.5,3.4h8.3L75,38l3-7.4,1.3-14.2Z" fill="#fefefe"></path>
    <path d="M88.9,47.1c-.1-6.4-.3-12.2-.6-16.5-.7-8.9-4.4-16.9-7.8-18.8a56.85,56.85,0,0,1-.2,6.8C80,21.8,79.2,32.7,77,36.4c-1.7,2.7-6,6-12.7,6.5-6.1.4-14.1-1.4-16.3-5.1-1.9-3.2-4-16.5-4.4-24.4-1.2.5-1.4.9-2.3,2.1-5.8,7.6-5.2,19.5-5.5,31.6Zm-55,0c.2-12.4.4-24.5,6.4-32.5a29.67,29.67,0,0,1,4.1-4.5s3.4,23.2,5.2,26.3,8.7,4.4,14.4,4c6.2-.4,10.2-3.1,11.7-5.5,1.6-2.7,2.8-10.1,3.1-16.6.2-4.1-.3-11.6-.3-11.6l1.4,1.6c5.6,4.6,8.9,12.7,10,22.8.9,8.5.9,16,.9,16"></path>
    <path d="M90.8,2494.05h-2V47.1h2m-55,2447h-2V47.1h2" fill="#1d1d1b"></path>
    <path d="M43.8,261.9A148.66,148.66,0,0,1,59,260.1c5.8-.2,22.2,1.1,21.8,1.6s-9.4.2-11.5-.2a46.61,46.61,0,0,0-13.6-.5C52.4,261.7,44,262.4,43.8,261.9Zm27-2.2s-7.9-.8-9.8-.6-8.1.8-9.1,1,4.4-1.8,9.2-2S71.3,258.9,70.8,259.7Zm10-179.8a148.66,148.66,0,0,0-15.2-1.8c-5.8-.2-22.2,1.1-21.8,1.6s9.4.2,11.5-.2c4.7-1,11.6-1,13.7-.5C72.3,79.7,80.7,80.4,80.8,79.9ZM53.9,77.7s7.8-.8,9.8-.6,8.1.8,9.1,1-4.4-1.8-9.2-2S53.4,76.9,53.9,77.7ZM78.7,9.8C78.5,7.6,78,5.7,77,4.6S68.5.2,60.4,1.2c-6.2.7-15.5,3.7-15.8,7.5v3H43.2V8.6C43.6,3.3,55.3.7,59.7.2c8-1,18.1,1.6,19.3,4.2a16.28,16.28,0,0,1,1.1,5.3ZM43.4,29.3s2.1,10.2,3.1,11.3c2.3,2.6,10,3.9,10,3.9s-9.6-.8-11.1-3.7C43.7,37.6,43.4,29.3,43.4,29.3Zm35.5,6.6s-1,3.2-2,4.1a19.56,19.56,0,0,1-3.5,2.3A7.84,7.84,0,0,0,77.1,41C78.8,39.8,79.2,36.9,78.9,35.9Z"></path>
</svg>